<?xml version="1.0" standalone="no"?>
<!DOCTYPE svg PUBLIC "-//W3C//DTD SVG 20010904//EN"
 "http://www.w3.org/TR/2001/REC-SVG-20010904/DTD/svg10.dtd">
<svg version="1.0" xmlns="http://www.w3.org/2000/svg"
 width="512.000000pt" height="512.000000pt" viewBox="0 0 512.000000 512.000000"
 preserveAspectRatio="xMidYMid meet">

<g transform="translate(0.000000,512.000000) scale(0.100000,-0.100000)"
fill="#000000" stroke="none">
<path d="M289 5036 c-81 -22 -135 -71 -174 -159 -149 -337 -67 -729 203 -978
38 -35 111 -89 162 -119 133 -79 190 -155 210 -276 11 -69 1 -128 -42 -244
-50 -132 -62 -197 -61 -330 3 -304 162 -576 428 -732 120 -70 179 -138 209
-238 23 -77 20 -141 -10 -228 -35 -101 -35 -164 1 -237 46 -95 128 -140 240
-133 122 8 195 80 252 253 25 74 27 93 27 250 1 166 0 172 -32 265 -18 52 -54
131 -80 175 -64 108 -191 235 -302 299 -112 66 -154 105 -191 182 -47 94 -51
183 -14 284 60 167 76 233 82 345 15 321 -146 612 -437 785 -146 87 -201 169
-208 310 -3 73 0 96 22 159 55 156 18 279 -100 343 -61 32 -125 41 -185 24z
m94 -178 c52 -27 58 -64 26 -148 -27 -69 -36 -212 -19 -293 29 -142 129 -271
274 -355 219 -126 350 -333 363 -574 7 -118 -6 -188 -59 -327 -109 -287 -18
-540 248 -693 102 -59 181 -131 239 -219 117 -175 149 -398 86 -600 -35 -110
-79 -146 -142 -114 -50 27 -55 57 -22 155 53 160 33 320 -56 457 -51 77 -99
121 -200 182 -149 92 -224 168 -288 296 -100 197 -105 386 -17 605 33 83 38
108 42 196 9 217 -80 373 -283 494 -122 72 -227 179 -283 286 -75 146 -100
315 -67 467 33 157 89 222 158 185z"/>
<path d="M2087 5026 c-50 -18 -76 -42 -98 -91 -17 -36 -19 -71 -19 -360 0
-289 2 -324 19 -360 39 -86 87 -105 266 -105 l135 0 0 -218 0 -219 286 -489
c157 -269 292 -499 300 -512 9 -13 31 -33 50 -44 l34 -20 0 -718 c0 -442 4
-729 10 -744 11 -29 299 -226 330 -226 10 0 86 45 169 99 136 91 151 103 160
138 7 25 11 279 11 745 l0 707 30 16 c38 20 39 21 366 580 l269 460 3 223 3
222 127 0 c70 0 145 5 167 11 50 14 100 64 114 114 15 54 15 626 0 680 -14 50
-64 100 -114 114 -28 8 -418 11 -1310 11 -1045 -1 -1277 -3 -1308 -14z m223
-256 c0 -94 2 -103 25 -125 33 -34 83 -34 116 1 21 23 24 36 27 125 l4 99 78
0 78 0 4 -99 c3 -89 6 -102 27 -125 33 -35 83 -35 116 -1 23 22 25 31 25 125
l0 100 85 0 85 0 0 -100 c0 -94 2 -103 25 -125 24 -25 65 -32 100 -19 31 12
45 59 45 154 l0 91 83 -3 82 -3 3 -100 c2 -86 6 -103 24 -122 28 -30 83 -31
115 -1 21 20 23 30 23 125 l0 103 84 0 84 0 4 -106 c3 -97 5 -107 27 -125 30
-24 82 -24 112 0 22 18 24 28 27 125 l4 106 84 0 84 0 0 -102 c0 -91 2 -104
22 -125 29 -31 87 -31 116 0 18 19 22 36 24 122 l3 100 83 3 82 3 0 -91 c0
-95 14 -142 45 -154 35 -13 76 -6 100 19 23 22 25 31 25 125 l0 100 85 0 85 0
0 -295 0 -295 -1260 0 -1260 0 0 295 0 295 85 0 85 0 0 -100z m1930 -825 l0
-164 -481 -3 -481 -3 -24 -28 c-32 -38 -31 -72 5 -108 l29 -29 441 0 c243 0
441 -3 441 -6 0 -3 -108 -192 -241 -420 l-241 -414 -288 0 -288 0 -236 404
c-130 223 -239 412 -242 420 -5 14 12 16 143 16 136 0 151 2 171 20 30 28 38
68 21 99 -26 45 -51 51 -236 51 l-173 0 0 165 0 165 840 0 840 0 0 -165z
m-670 -1405 l0 -60 -165 -110 c-90 -60 -167 -110 -170 -110 -3 0 -5 77 -5 170
l0 170 170 0 170 0 0 -60z m0 -375 l0 -105 -165 -110 c-90 -60 -167 -110 -170
-110 -3 0 -5 48 -5 108 l0 107 163 107 c89 60 165 108 170 108 4 0 7 -47 7
-105z m0 -420 l0 -105 -165 -110 c-90 -60 -167 -110 -170 -110 -3 0 -5 48 -5
108 l0 107 163 107 c89 60 165 108 170 108 4 0 7 -47 7 -105z m0 -418 l0 -103
-85 -59 -85 -58 -80 53 c-44 29 -80 55 -80 59 1 7 311 210 323 211 4 0 7 -46
7 -103z"/>
<path d="M1865 3666 c-126 -58 -170 -179 -122 -331 50 -162 45 -224 -25 -297
-56 -58 -78 -110 -78 -184 0 -114 70 -209 179 -240 68 -20 127 -13 194 23 90
49 198 195 239 323 26 81 35 251 19 346 -13 73 -54 212 -76 254 -20 38 -86 97
-127 115 -56 23 -143 19 -203 -9z m164 -165 c35 -35 73 -175 79 -290 8 -170
-28 -280 -128 -383 -45 -47 -62 -58 -87 -58 -37 0 -81 35 -84 65 -3 43 2 56
42 97 52 54 75 99 89 177 13 73 3 161 -30 255 -25 74 -25 97 1 130 26 33 88
37 118 7z"/>
<path d="M2450 2353 c-34 -12 -60 -47 -60 -80 0 -28 28 -68 183 -260 100 -125
194 -234 208 -242 51 -28 113 18 111 81 0 22 -47 87 -182 256 -100 125 -187
230 -193 233 -22 12 -52 17 -67 12z"/>
<path d="M209 2336 c-86 -30 -154 -119 -165 -213 -8 -62 17 -157 64 -248 52
-101 181 -228 287 -283 150 -76 363 -121 447 -93 166 55 230 255 125 393 -43
56 -97 85 -192 103 -138 27 -217 76 -230 143 -3 15 -17 50 -31 79 -42 84 -121
132 -219 132 -27 0 -66 -6 -86 -13z m139 -176 c12 -11 24 -33 28 -48 18 -83
65 -150 137 -196 68 -42 116 -61 213 -81 95 -20 124 -42 124 -96 0 -29 -6 -42
-27 -59 -25 -19 -36 -21 -90 -16 -264 27 -496 212 -520 415 -5 44 -3 52 20 75
32 32 84 35 115 6z"/>
<path d="M4278 2336 c-32 -24 -367 -449 -373 -473 -14 -55 48 -113 103 -96 18
6 83 78 200 224 95 117 180 226 188 241 18 35 9 72 -23 98 -29 23 -70 25 -95
6z"/>
<path d="M1853 2255 c-53 -23 -62 -92 -17 -132 33 -30 78 -30 109 2 66 65 -7
167 -92 130z"/>
<path d="M4881 2259 c-81 -32 -58 -159 29 -159 68 0 106 89 60 138 -12 12 -25
22 -30 22 -4 0 -14 2 -22 4 -7 3 -24 0 -37 -5z"/>
<path d="M2082 1987 c-14 -15 -22 -36 -22 -58 0 -32 26 -60 358 -392 326 -326
360 -357 390 -357 46 0 68 14 81 51 8 25 8 38 -4 63 -9 18 -170 186 -358 374
-337 336 -344 342 -383 342 -29 0 -47 -6 -62 -23z"/>
<path d="M4269 1663 c-192 -190 -353 -359 -360 -375 -23 -57 33 -122 95 -111
14 3 172 154 380 362 334 335 356 359 356 392 0 48 -33 79 -85 79 -38 0 -49
-11 -386 -347z"/>
<path d="M70 1231 l-30 -29 0 -572 0 -572 29 -29 29 -29 2462 0 2462 0 29 29
29 29 0 572 0 572 -30 29 -29 30 -403 -3 c-391 -3 -404 -4 -443 -25 -47 -25
-96 -75 -119 -120 -90 -178 -457 -335 -944 -403 -693 -97 -1480 1 -1863 231
-98 59 -141 97 -176 159 -35 61 -80 107 -128 133 -39 21 -52 22 -443 25 l-403
3 -29 -30z m814 -158 c9 -10 36 -46 58 -81 148 -231 584 -402 1193 -468 203
-21 646 -22 850 0 605 65 1045 238 1194 469 68 106 29 97 403 97 l328 0 0
-460 0 -460 -2350 0 -2350 0 0 460 0 460 328 0 c300 0 330 -2 346 -17z"/>
<path d="M405 475 c-31 -30 -32 -73 -4 -109 19 -24 26 -26 100 -26 71 0 82 3
104 25 33 32 33 78 0 110 -21 22 -33 25 -100 25 -67 0 -79 -3 -100 -25z"/>
<path d="M821 474 c-12 -15 -21 -39 -21 -54 0 -15 9 -39 21 -54 l20 -26 334 0
334 0 20 26 c12 15 21 39 21 54 0 15 -9 39 -21 54 l-20 26 -334 0 -334 0 -20
-26z"/>
</g>
</svg>
