<?xml version="1.0" standalone="no"?>
<!DOCTYPE svg PUBLIC "-//W3C//DTD SVG 20010904//EN"
 "http://www.w3.org/TR/2001/REC-SVG-20010904/DTD/svg10.dtd">
<svg version="1.0" xmlns="http://www.w3.org/2000/svg"
 width="512.000000pt" height="512.000000pt" viewBox="0 0 512.000000 512.000000"
 preserveAspectRatio="xMidYMid meet">

<g transform="translate(0.000000,512.000000) scale(0.100000,-0.100000)"
fill="#000000" stroke="none">
<path d="M1980 5111 c-50 -15 -89 -41 -124 -83 -35 -40 -66 -118 -66 -163 0
-48 33 -128 68 -167 40 -45 121 -88 165 -88 l27 0 0 -94 0 -94 -42 10 c-50 11
-109 3 -159 -23 -72 -36 -139 -136 -139 -207 0 -19 -7 -21 -118 -24 -113 -3
-120 -4 -156 -32 -65 -49 -66 -56 -66 -437 0 -334 0 -342 22 -381 38 -66 75
-82 206 -87 l112 -3 0 -195 0 -195 -84 -132 c-221 -346 -399 -721 -528 -1113
-50 -151 -51 -153 -80 -153 -84 0 -108 -135 -28 -162 10 -3 7 -33 -16 -133
l-29 -130 -37 -6 c-48 -7 -66 -23 -74 -65 -7 -40 14 -80 52 -94 27 -11 28 -15
14 -131 -16 -128 -16 -126 -54 -133 -91 -17 -102 -141 -15 -164 l31 -7 1 -125
c2 -141 10 -164 78 -230 78 -75 -39 -70 1619 -70 1634 0 1535 -4 1612 60 20
17 48 53 62 82 24 47 26 63 26 170 0 112 1 118 20 118 33 0 70 44 70 84 0 26
-7 40 -31 60 -17 14 -41 26 -55 26 -13 0 -24 3 -24 8 0 4 -7 52 -15 107 -19
132 -19 134 9 145 31 11 56 48 56 81 0 39 -30 71 -75 78 l-39 6 -27 120 c-33
141 -33 145 -16 145 25 0 51 40 51 77 0 43 -40 83 -83 83 -28 0 -30 4 -76 145
l-48 145 46 49 c61 65 84 139 68 220 -26 131 -132 211 -278 211 l-53 0 0 313
c0 300 1 313 20 325 11 6 29 30 40 52 18 35 20 58 20 230 l0 190 23 0 c38 0
100 43 124 85 23 40 23 43 23 463 0 459 0 462 -56 513 -52 47 -69 49 -530 49
l-434 0 0 85 0 85 28 0 c35 1 98 30 141 66 110 92 106 291 -7 384 -73 60 -76
60 -636 59 -281 0 -522 -4 -536 -8z m1049 -176 c49 -25 57 -90 16 -130 l-24
-25 -500 0 -500 0 -27 24 c-21 18 -28 32 -28 61 0 29 7 43 28 61 l27 24 490 0
c410 0 495 -2 518 -15z m-209 -421 c0 -94 -1 -96 -30 -120 -16 -14 -38 -48
-47 -75 l-18 -49 -252 0 -253 0 0 170 0 170 300 0 300 0 0 -96z m-795 -275
c20 -19 20 -36 25 -977 l5 -957 26 -55 c36 -77 77 -121 151 -161 l63 -34 790
-5 c435 -3 796 -9 804 -14 19 -13 42 -72 34 -93 -3 -10 -15 -28 -26 -40 l-20
-23 -777 0 c-655 0 -785 2 -833 15 -185 48 -324 187 -372 372 -13 49 -15 197
-15 998 0 848 2 943 16 963 31 45 89 50 129 11z m1815 -354 l0 -385 -470 0
-470 0 0 385 0 385 470 0 470 0 0 -385z m-1110 130 l0 -85 -255 0 -255 0 0 85
0 85 255 0 255 0 0 -85z m-1020 -305 l0 -300 -85 0 -85 0 0 300 0 300 85 0 85
0 0 -300z m1021 -97 c1 -76 4 -149 8 -163 6 -21 -1 -32 -44 -72 l-50 -47 -212
-1 -213 0 0 210 0 210 255 0 255 0 1 -137z m939 -453 l0 -170 -300 0 -300 0 0
170 0 170 300 0 300 0 0 -170z m-770 -395 l0 -545 -85 0 -85 0 0 438 c0 483 2
504 61 575 24 29 85 73 107 77 1 0 2 -245 2 -545z m-334 364 c-3 -17 -6 -229
-6 -470 l0 -439 -107 0 c-95 0 -111 3 -149 25 -28 16 -49 39 -63 68 -20 42
-21 58 -21 445 l0 402 176 0 177 0 -7 -31z m674 -609 l0 -300 -85 0 -85 0 0
293 c0 162 3 297 7 300 3 4 42 7 85 7 l78 0 0 -300z m340 0 l0 -300 -85 0 -85
0 0 293 c0 162 3 297 7 300 3 4 42 7 85 7 l78 0 0 -300z m-1836 -345 c69 -202
217 -353 421 -430 l80 -30 777 -3 c723 -2 778 -4 787 -20 8 -15 81 -230 81
-238 0 -2 -598 -4 -1330 -4 -731 0 -1330 2 -1330 4 0 16 80 243 130 370 67
169 201 449 288 600 l57 98 6 -133 c5 -110 11 -149 33 -214z m2205 -932 c16
-60 51 -207 51 -215 0 -5 -648 -8 -1440 -8 -792 0 -1440 2 -1440 5 0 6 39 172
51 218 l10 37 1379 0 1379 0 10 -37z m97 -478 c6 -44 14 -99 17 -122 l5 -43
-1507 0 -1507 0 13 103 c7 56 15 112 18 125 l5 22 1473 -2 1472 -3 11 -80z
m38 -351 c8 -21 8 -178 0 -199 -18 -47 33 -45 -1524 -45 -1092 0 -1467 3
-1483 12 -12 6 -27 18 -34 27 -13 17 -17 122 -7 184 l7 37 1517 0 c1375 0
1518 -1 1524 -16z"/>
</g>
</svg>
