<?xml version="1.0" encoding="iso-8859-1"?>
<!-- Generator: Adobe Illustrator 19.0.0, SVG Export Plug-In . SVG Version: 6.00 Build 0)  -->
<svg version="1.1" id="Layer_1" xmlns="http://www.w3.org/2000/svg" xmlns:xlink="http://www.w3.org/1999/xlink" x="0px" y="0px"
	 viewBox="0 0 511.998 511.998" style="enable-background:new 0 0 511.998 511.998;" xml:space="preserve">
<g>
	<g>
		<path d="M511.833,232.658c-9.039-49.805-33.628-93.964-71.108-127.701c-36.04-32.441-82.506-54.056-134.436-62.555
			c-14.784-7.162-30.359-10.363-50.29-10.363s-35.506,3.202-50.29,10.363c-51.931,8.499-98.396,30.114-134.436,62.555
			C33.793,138.694,9.204,182.851,0.165,232.66c-0.563,3.108,0.33,6.346,2.45,8.886c2.299,2.752,5.752,4.397,9.235,4.397
			c1.844,0,3.652-0.468,5.23-1.352c0.202-0.113,0.407-0.217,0.609-0.329l232.6,233.328c0.003,0.003,0.006,0.005,0.01,0.009
			c0.003,0.003,0.005,0.006,0.009,0.01c0.019,0.019,0.04,0.034,0.059,0.054c0.042,0.041,0.082,0.085,0.125,0.125
			c0.017,0.017,0.037,0.03,0.054,0.046c0.068,0.062,0.14,0.119,0.21,0.179c0.053,0.045,0.102,0.096,0.156,0.14
			c0.023,0.018,0.045,0.033,0.068,0.05c0.119,0.095,0.244,0.184,0.37,0.272c0.047,0.033,0.091,0.07,0.139,0.102
			c0.026,0.017,0.049,0.038,0.076,0.055c0.028,0.018,0.057,0.033,0.085,0.051c0.102,0.066,0.211,0.126,0.317,0.187
			c0.005,0.003,0.012,0.006,0.017,0.01c0.09,0.052,0.176,0.111,0.268,0.158c0.038,0.019,0.076,0.034,0.113,0.053
			c0.036,0.019,0.072,0.038,0.11,0.056c0.03,0.015,0.061,0.026,0.091,0.04c0.02,0.01,0.043,0.018,0.063,0.027
			c0.028,0.013,0.057,0.026,0.086,0.04c0.085,0.038,0.167,0.083,0.253,0.117c0.048,0.019,0.097,0.033,0.145,0.052
			c0.027,0.011,0.052,0.024,0.08,0.034c0.078,0.029,0.157,0.048,0.235,0.075c0.014,0.004,0.028,0.01,0.042,0.015
			c0.025,0.008,0.048,0.017,0.072,0.025c0.032,0.011,0.063,0.024,0.096,0.034c0.024,0.006,0.045,0.017,0.069,0.023
			c0.034,0.011,0.071,0.017,0.105,0.026c0.136,0.039,0.274,0.069,0.412,0.101c0.004,0.001,0.01,0.002,0.015,0.003
			c0.074,0.016,0.148,0.04,0.222,0.054c0.02,0.004,0.04,0.005,0.059,0.009c0.068,0.013,0.137,0.024,0.204,0.034
			c0.057,0.01,0.115,0.015,0.172,0.023c0.077,0.011,0.155,0.023,0.232,0.03c0.033,0.003,0.066,0.012,0.1,0.015
			c0.004,0,0.01,0,0.014,0c0.254,0.024,0.506,0.039,0.758,0.039c0,0,0,0,0.001,0h0.001c0.252,0,0.504-0.014,0.757-0.039
			c0.005,0,0.01,0,0.015,0c0.033-0.003,0.066-0.011,0.099-0.015c0.077-0.009,0.155-0.019,0.232-0.03
			c0.057-0.009,0.115-0.014,0.172-0.023c0.069-0.011,0.136-0.021,0.205-0.034c0.019-0.003,0.039-0.004,0.058-0.009
			c0.08-0.015,0.156-0.04,0.235-0.057c0.14-0.031,0.278-0.062,0.418-0.102c0.034-0.01,0.069-0.015,0.102-0.025
			c0.024-0.006,0.046-0.017,0.07-0.024c0.031-0.01,0.062-0.023,0.092-0.032c0.038-0.012,0.075-0.027,0.113-0.04
			c0.08-0.027,0.16-0.048,0.24-0.077c0.028-0.011,0.054-0.025,0.082-0.035c0.047-0.018,0.095-0.031,0.141-0.049
			c0.113-0.046,0.222-0.103,0.335-0.156c0.024-0.011,0.049-0.02,0.073-0.032c0.028-0.013,0.056-0.021,0.084-0.035
			c0.039-0.018,0.075-0.039,0.113-0.058c0.037-0.018,0.073-0.032,0.11-0.051c0.098-0.052,0.191-0.114,0.288-0.17
			c0.106-0.062,0.215-0.121,0.317-0.188c0.026-0.017,0.054-0.03,0.081-0.048c0.028-0.018,0.054-0.04,0.082-0.058
			c0.045-0.03,0.086-0.065,0.13-0.096c0.001-0.001,0.003-0.002,0.005-0.004c0.126-0.089,0.251-0.177,0.372-0.272
			c0.021-0.017,0.044-0.032,0.064-0.048c0.055-0.044,0.104-0.096,0.158-0.142c0.072-0.061,0.146-0.12,0.215-0.184
			c0.015-0.014,0.031-0.025,0.046-0.039c0.044-0.041,0.084-0.086,0.126-0.127c0.019-0.018,0.041-0.034,0.059-0.054
			c0.003-0.003,0.005-0.006,0.009-0.01c0.003-0.003,0.006-0.005,0.01-0.009l232.602-233.331c0.204,0.112,0.411,0.217,0.614,0.331
			c1.577,0.884,3.385,1.352,5.23,1.352c3.484,0,6.937-1.643,9.235-4.397C511.503,239.007,512.396,235.768,511.833,232.658z
			 M212.743,56.917c12.638-6.125,25.65-8.758,43.255-8.758c17.605,0,30.616,2.633,43.255,8.758
			c35.463,32.021,52.203,113.398,36.993,175.707c-24.19-14.42-51.912-22.049-80.216-22.055h-0.016c-0.005-0.001-0.013,0-0.019,0
			c-28.308,0-56.043,7.628-80.243,22.054C160.541,170.314,177.28,88.938,212.743,56.917z M82.056,116.938
			c28.647-25.787,64.429-44.281,104.495-54.174c-27.73,40.194-39.75,108.24-28.285,165.511
			c-22.28-11.603-47.124-17.708-72.438-17.708c-23.52,0-46.777,5.299-67.843,15.396C27.653,183.619,49.673,146.088,82.056,116.938z
			 M33.116,236.906c16.664-6.716,34.599-10.217,52.711-10.217c25.627,0,50.717,6.956,72.558,20.113
			c1.805,1.088,3.981,2.254,6.434,3.069l70.684,190.057L33.116,236.906z M255.994,448.776l-74.675-200.788
			c0.816-0.431,1.605-0.878,2.353-1.326c21.782-13.066,46.791-19.972,72.331-19.972c25.531,0,50.54,6.906,72.322,19.972
			c0.746,0.447,1.533,0.893,2.346,1.323L255.994,448.776z M276.484,439.928l70.683-190.054c2.458-0.816,4.635-1.984,6.442-3.072
			c21.842-13.159,46.933-20.113,72.559-20.113c18.111,0,36.044,3.501,52.707,10.215L276.484,439.928z M426.168,210.568
			c-25.314,0-50.157,6.105-72.438,17.708c11.465-57.271-0.556-125.317-28.285-165.511c40.066,9.893,75.848,28.387,104.495,54.174
			c32.383,29.149,54.404,66.683,64.072,109.026C472.946,215.868,449.688,210.568,426.168,210.568z"/>
	</g>
</g>
<g>
</g>
<g>
</g>
<g>
</g>
<g>
</g>
<g>
</g>
<g>
</g>
<g>
</g>
<g>
</g>
<g>
</g>
<g>
</g>
<g>
</g>
<g>
</g>
<g>
</g>
<g>
</g>
<g>
</g>
</svg>
